<svg version="1.1" xmlns="http://www.w3.org/2000/svg" viewBox="-18.210550828348165 -6.2471402466575015 49.95443858809837 16.00739313796099" fill="none" stroke="black" stroke-width="0.6%" vector-effect="non-scaling-stroke">
    <path d="M 30.74389 2.80749 A 5 0.6354 0 0 1 28.936 3.29655" />
    <path d="M -16.03422 3.85814 A 5 0.6354 0 0 1 -17.21055 3.44872" />
    <path d="M -16.03422 4.73527 L -15.83294 4.83556" />
    <path d="M -6.62756 7.70331 A 5 0.6354 0 0 1 -15.83294 7.35961" />
    <path d="M 3.34089 8.19611 A 5 0.6354 0 0 1 -6.62756 8.12485" />
    <path d="M 3.34089 8.19611 L 3.88819 8.2374" />
    <path d="M 28.936 3.38871 A 65 8.2602 180 0 0 3.88819 8.2374" />
    <path d="M 23.46287 -0.73361 A 5 0.6354 0 0 1 30.74389 -0.16819 A 5 0.6354 0 0 1 28.78227 0.33644" />
    <path d="M 28.936 0.41303 L 28.78227 0.33644" />
    <path d="M 28.936 0.41303 L 28.936 3.38871" />
    <path d="M 3.88819 5.26172 L 3.88819 8.2374" />
    <path d="M 3.88819 5.26172 A 65 8.2602 0 0 1 5.75056 4.42281 L 2.81593 4.26304 L 2.81593 -1.68831 L 5.75056 -1.52854 L 5.75056 4.42281" />
    <path d="M 5.75056 -1.52854 A 65 8.2602 0 0 1 11.09591 -3.02083 L 11.09591 3.92242" />
    <path d="M 14.84521 3.19405 A 65 8.2602 180 0 0 11.09591 3.92242" />
    <path d="M 14.84521 -3.7492 L 14.84521 3.19405" />
    <path d="M 14.84521 -3.7492 A 65 8.2602 0 0 1 23.46287 -4.96946 L 21.13522 -5.24714 L 15.98325 -4.54972" />
    <path d="M 23.46287 -4.96946 L 23.46287 0.9819 A 65 8.2602 0 0 1 28.936 0.41303" />
    <path d="M 3.34089 5.22044 L 3.88819 5.26172" />
    <path d="M 3.34089 5.22044 L 3.34089 8.19611" />
    <path d="M -4.49958 4.62905 A 5 0.6354 180 0 0 -6.62756 5.14917 L -6.62756 8.12485" />
    <path d="M -6.62756 5.14917 A 5 0.6354 180 0 0 3.34089 5.22044" />
    <path d="M -5.94852 4.51976 L -4.49958 4.62905" />
    <path d="M -5.94852 4.51976 L -5.94852 4.82946" />
    <path d="M -12.00652 3.76628 A 5 0.6354 180 0 0 -15.83294 4.38393 L -15.83294 7.35961" />
    <path d="M -15.83294 4.38393 A 5 0.6354 180 0 0 -5.94852 4.51976" />
    <path d="M -16.03422 1.7596 L -12.00652 3.76628" />
    <path d="M -16.03422 4.73527 L -16.03422 1.7596" />
    <path d="M -12.95947 1.10128 L -16.03422 1.7596" />
    <path d="M -8.22963 0.08859 A 5 0.6354 180 0 0 -17.21055 0.47304 L -17.21055 3.44872" />
    <path d="M -17.21055 0.47304 A 5 0.6354 180 0 0 -12.95947 1.10128" />
    <path d="M -6.26805 -0.33139 L -8.22963 0.08859" />
    <path d="M -3.87164 -0.40907 L -6.26805 -0.33139" />
    <path d="M -9.36844 4.50568 A 1.75 0.22239 0 0 1 -12.58294 4.38393 A 1.75 0.22239 0 0 1 -9.08294 4.38393 A 1.75 0.22239 0 0 1 -9.36844 4.50568 Z" />
    <path d="M 11.09591 2.8615 A 4 0.50832 0 0 1 11.62285 3.11368 A 4 0.50832 0 0 1 11.09591 3.36586" />
    <path d="M -4.86073 2.04038 A 12.5 1.5885 180 0 0 2.81593 3.58814" />
    <path d="M -0.16307 5.27092 A 1.75 0.22239 0 0 1 -3.37756 5.14917 A 1.75 0.22239 0 0 1 0.12244 5.14917 A 1.75 0.22239 0 0 1 -0.16307 5.27092 Z" />
    <path d="M -11.0808 0.56696 A 1.75 0.22239 0 0 1 -14.29529 0.44522 A 1.75 0.22239 0 0 1 -10.79529 0.44522 A 1.75 0.22239 0 0 1 -11.0808 0.56696 Z" />
    <path d="M 27.20838 -0.04644 A 1.75 0.22239 0 0 1 23.99389 -0.16819 A 1.75 0.22239 0 0 1 27.49389 -0.16819 A 1.75 0.22239 0 0 1 27.20838 -0.04644 Z" />
    <path d="M 5.78018 -2.5676 L 2.81593 -1.68831" />
    <path d="M 11.09591 -3.02083 A 7.25 0.92133 0 0 1 0.37285 -3.82957 A 7.25 0.92133 0 0 1 14.87285 -3.82957 A 7.25 0.92133 0 0 1 14.84521 -3.7492" />
    <path d="M 5.78018 -2.5676 A 10.1 1.28351 360 0 1 -2.46388 -3.89534 L -4.86073 2.04038" />
    <path d="M -2.46388 -3.89534 A 10.1 1.28351 360 0 1 15.98325 -4.54972" />
    <path d="M 14.84521 3.03331 A 7.25 0.92133 180 0 0 11.09591 2.30494" />
    <path d="M 30.74389 -0.16819 L 30.74389 2.80749" />
</svg>